<?xml version="1.0" standalone="no"?>
<!DOCTYPE svg PUBLIC "-//W3C//DTD SVG 20010904//EN"
 "http://www.w3.org/TR/2001/REC-SVG-20010904/DTD/svg10.dtd">
<svg version="1.0" xmlns="http://www.w3.org/2000/svg"
 width="360.000000pt" height="360.000000pt" viewBox="0 0 360.000000 360.000000"
 preserveAspectRatio="xMidYMid meet">

<g transform="translate(0.000000,360.000000) scale(0.100000,-0.100000)"
fill="#000000" stroke="none">
<path d="M2125 2821 c-27 -11 -78 -31 -113 -46 -39 -16 -103 -31 -170 -40
-117 -14 -141 -21 -201 -60 -32 -19 -54 -25 -99 -25 -79 0 -158 -39 -188 -93
-18 -33 -31 -42 -85 -61 -35 -11 -93 -42 -129 -67 -84 -60 -148 -92 -240 -119
-41 -13 -112 -38 -157 -56 -45 -19 -91 -34 -102 -34 -11 0 -41 -16 -66 -36
-26 -20 -65 -42 -86 -49 -61 -22 -87 -44 -114 -98 -40 -81 -34 -158 18 -214
19 -22 19 -24 3 -180 -10 -87 -20 -228 -23 -313 -5 -136 -4 -160 12 -193 32
-68 130 -109 336 -142 118 -18 846 -111 994 -126 55 -6 186 -21 290 -34 105
-13 296 -33 425 -45 129 -11 276 -25 326 -31 106 -12 143 -2 186 49 42 51 110
362 178 817 12 77 23 147 26 156 2 8 20 23 40 32 48 23 78 90 72 161 -7 80
-43 141 -138 231 -147 139 -177 174 -245 275 -102 153 -152 189 -421 306 -96
41 -119 47 -194 51 -67 3 -96 -1 -135 -16z m-1561 -1046 c92 -1 109 -5 189
-39 116 -49 181 -54 311 -27 109 23 220 27 281 10 65 -19 162 -13 269 15 54
14 112 26 128 26 17 0 92 -16 167 -36 190 -51 275 -51 460 1 147 41 188 42
330 11 88 -20 140 -16 290 25 58 16 106 27 108 25 6 -6 -57 -422 -92 -606 -38
-204 -66 -310 -90 -347 -29 -44 -48 -46 -236 -29 -451 41 -602 56 -699 71 -58
9 -301 38 -540 65 -826 95 -959 120 -1020 196 -21 28 -22 34 -16 164 6 141 23
375 32 448 3 26 9 40 16 36 6 -4 56 -8 112 -9z"/>
<path d="M479 1714 c-16 -20 -23 -107 -12 -158 5 -23 19 -47 33 -57 28 -20
283 -75 500 -108 509 -76 1047 -108 1636 -95 l320 6 27 89 c30 97 33 129 15
147 -9 9 -81 12 -262 12 -328 0 -774 16 -1006 35 -325 27 -506 49 -1095 130
-136 19 -140 19 -156 -1z m171 -28 c136 -25 594 -83 870 -110 352 -35 543 -45
1036 -53 234 -3 427 -10 429 -14 3 -4 -7 -45 -22 -92 l-26 -84 -301 -7 c-720
-16 -1329 30 -1925 145 -113 21 -206 39 -207 39 -1 0 -7 14 -13 31 -12 35 -14
111 -4 148 7 26 2 26 163 -3z"/>
<path d="M2573 1713 c7 -6 61 -27 155 -61 36 -12 52 -13 97 -3 30 7 65 21 77
31 28 23 16 25 -48 5 -69 -21 -106 -19 -174 10 -54 23 -123 35 -107 18z"/>
<path d="M1300 1691 c24 -14 100 -24 100 -13 0 12 -35 22 -80 22 -24 -1 -30
-3 -20 -9z"/>
<path d="M1951 1666 c25 -27 198 -46 229 -26 8 5 13 10 10 10 -3 0 -34 2 -70
4 -36 2 -90 7 -120 11 -30 4 -52 5 -49 1z"/>
<path d="M455 1430 c-4 -6 -9 -50 -12 -98 -6 -97 7 -166 35 -181 23 -12 125
-35 222 -51 41 -6 145 -25 230 -41 124 -24 864 -113 1310 -159 142 -14 559
-32 596 -26 24 5 38 15 49 36 21 41 65 216 65 260 0 68 -8 70 -218 70 -217 0
-760 16 -1042 30 -307 15 -802 83 -1065 145 -115 27 -160 31 -170 15z m200
-44 c165 -38 373 -72 639 -106 272 -34 783 -60 1211 -60 314 0 412 -7 418 -29
5 -22 -20 -141 -46 -221 l-22 -65 -70 -3 c-116 -6 -474 17 -755 48 -146 16
-410 45 -587 65 -176 19 -381 46 -455 60 -73 13 -203 35 -288 49 -182 30 -217
40 -226 69 -10 29 -9 201 1 217 9 14 22 12 180 -24z"/>
</g>
</svg>
